<?xml version="1.0" encoding="UTF-8" standalone="no" ?>
<!DOCTYPE svg PUBLIC "-//W3C//DTD SVG 1.1//EN" "http://www.w3.org/Graphics/SVG/1.1/DTD/svg11.dtd">
<svg xmlns="http://www.w3.org/2000/svg" xmlns:xlink="http://www.w3.org/1999/xlink" version="1.1" width="1280" height="1024" viewBox="0 0 1280 1024" xml:space="preserve">
<desc>Created with Fabric.js 4.4.0</desc>
<defs>
</defs>
<g transform="matrix(1 0 0 1 640 512)" id="background-logo"  >
<rect style="stroke: none; stroke-width: 0; stroke-dasharray: none; stroke-linecap: butt; stroke-dashoffset: 0; stroke-linejoin: miter; stroke-miterlimit: 4; fill: rgb(188,188,188); fill-opacity: 0; fill-rule: nonzero; opacity: 1;"  paint-order="stroke"  x="-640" y="-512" rx="0" ry="0" width="1280" height="1024" />
</g>
<g transform="matrix(0.981400424087522 0 0 0.981400424087522 615.5307301258382 512.4662526028578)" id="logo-logo"  >
<g style=""  paint-order="stroke"   >
		<g transform="matrix(1.3492700051334536 0 0 1.3492700051334536 -0.02021759668394907 -63.88794297361608)"  >
<path style="stroke: none; stroke-width: 1; stroke-dasharray: none; stroke-linecap: butt; stroke-dashoffset: 0; stroke-linejoin: miter; stroke-miterlimit: 4; fill: rgb(0,0,0); fill-rule: nonzero; opacity: 1;"  paint-order="stroke"  transform=" translate(-143.98501595, -96.64999583859702)" d="M 159.0700073 95.8900146 C 168.6900024 87.8800048 170.45001219999997 73.6099853 162.84002679999998 63.5199584 C 155 53.1300049 140.1799927 51.039978 129.7800293 58.8699951 C 119.3900147 66.7099609 117.2999878 81.5599975 125.1400147 91.9500122 C 126.26000979999999 93.4400024 127.5300293 94.7600098 128.9000245 95.8900146 C 111.7399903 101.4099731 98.67999280000001 116.1199951 95.5200196 134.2199707 C 98.2399903 135.6199951 100.79998789999999 137.2699585 103.19000249999999 139.1699829 C 104.9799805 118.20996090000001 122.58001709999999 101.73999020000001 144.0000001 101.73999020000001 C 165.3900147 101.73999020000001 182.9899903 118.20996090000001 184.7800294 139.1699829 C 187.169983 137.2699585 189.72998059999998 135.6199951 192.4500123 134.2199707 C 189.289978 116.1199951 176.2299805 101.4099731 159.0700073 95.8900146 z M 153.2399902 90 C 146.4699707 95.0899658 136.8200073 93.7399902 131.7399902 86.9799805 C 126.6199951 80.20996099999999 127.96997069999999 70.5599976 134.7299804 65.4699707 C 141.5 60.3599854 151.1500244 61.7299805 156.2600098 68.5 C 161.3499756 75.2600098 160 84.8900146 153.2399902 90 z" stroke-linecap="round" />
</g>
		<g transform="matrix(1.3492700051334536 0 0 1.3492700051334536 96.1692113853399 -3.155466700833074)"  >
<path style="stroke: none; stroke-width: 1; stroke-dasharray: none; stroke-linecap: butt; stroke-dashoffset: 0; stroke-linejoin: miter; stroke-miterlimit: 4; fill: rgb(0,0,0); fill-rule: nonzero; opacity: 1;"  paint-order="stroke"  transform=" translate(-215.27499395000004, -141.66135460424016)" d="M 230.2600098 131 C 239.8900147 123 241.6500244 108.7299805 234.0300293 98.6400146 C 226.1900024 88.2399902 211.36999509999998 86.1499633 200.9799805 93.9899902 C 190.58001710000002 101.829956 188.48999030000002 116.6499633 196.33001710000002 127.03997799999999 C 197.460022 128.52996819999998 198.71997070000003 129.8499756 200.09997560000002 131 C 197.4299927 131.8299561 194.90002440000004 132.8999634 192.45001220000003 134.2199707 C 189.72998050000004 135.6199951 187.16998290000004 137.2699585 184.78002930000002 139.1699829 C 174.54998780000003 147.2299805 167.57000730000001 159.23999020000002 166.21997070000003 172.88000490000002 C 168.96997070000003 174.2799683 171.58001710000002 175.9299927 174.00000000000003 177.79998780000003 L 174.21997070000003 177.79998780000003 C 174.21997070000003 155.2299805 192.59002690000003 136.85998540000003 215.16998290000004 136.85998540000003 C 237.25000000000003 136.85998540000003 255.26000980000003 154.36999520000003 256.0800171 176.20996100000002 C 256.1099854 176.2899781 256.0800171 176.36999520000003 256.0800171 176.45996100000002 C 255.53002930000002 181.73999030000002 251.08001710000002 185.82995610000003 245.69000250000002 185.82995610000003 C 239.90997320000002 185.82995610000003 235.23999030000002 181.15997320000002 235.23999030000002 175.38000490000005 L 226.98999030000002 175.38000490000005 C 226.98999030000002 185.70001220000006 235.38000490000002 194.07995610000006 245.69000250000002 194.07995610000006 C 255.1799927 194.07995610000006 263.03997810000004 186.98999030000007 264.2000123 177.79998780000005 C 264.2000123 177.79998780000005 264.33001720000004 175.57995610000006 264.33001720000004 175.38000490000005 C 263.3200073 154.5899658 249.3200073 137.1300049 230.2600098 131 z M 224.4299927 125.0899658 C 217.6699829 130.2000122 208.0200196 128.8599853 202.9299927 122.0899658 C 197.8099976 115.329956 199.15997320000002 105.66998290000001 205.9299927 100.55999750000001 C 212.69000250000002 95.46997060000001 222.3400269 96.82000730000001 227.4299927 103.58996580000002 C 232.5499878 110.3499756 231.2000122 120 224.4299927 125.0899658 z" stroke-linecap="round" />
</g>
		<g transform="matrix(1.3492700051334536 0 0 1.3492700051334536 -96.18947026968598 -3.155466700833074)"  >
<path style="stroke: none; stroke-width: 1; stroke-dasharray: none; stroke-linecap: butt; stroke-dashoffset: 0; stroke-linejoin: miter; stroke-miterlimit: 4; fill: rgb(0,0,0); fill-rule: nonzero; opacity: 1;"  paint-order="stroke"  transform=" translate(-72.70999145, -141.66135460424016)" d="M 103.1900024 139.1699829 C 100.7999878 137.2699585 98.2399902 135.6199951 95.5200195 134.2199707 C 93.0700073 132.8999634 90.539978 131.8299561 87.8800049 131 C 97.5300293 123.02996830000001 99.2600098 108.7299805 91.64001470000001 98.6400146 C 83.8099976 88.2399902 68.97998050000001 86.1499633 58.59002690000001 93.9899902 C 48.20001230000001 101.829956 46.109985400000014 116.6499633 53.94000250000001 127.03997799999999 C 55.070007400000016 128.52996819999998 56.33001710000001 129.8499756 57.71002200000001 131 C 38.65002440000001 137.1300049 24.679992700000007 154.58996580000002 23.669982900000008 175.38000490000002 L 23.799987800000007 177.79998780000003 C 24.960022000000006 186.98999020000002 32.79998780000001 194.07995610000003 42.28002930000001 194.07995610000003 C 52.59997560000001 194.07995610000003 60.97998050000001 185.70001230000003 60.97998050000001 175.38000490000002 L 52.72998050000001 175.38000490000002 C 52.72998050000001 181.15997320000002 48.05999760000001 185.8299561 42.28002930000001 185.8299561 C 36.80999760000001 185.8299561 32.29998780000001 181.5999756 31.919982900000008 176.209961 C 32.7399902 154.3699951 50.75 136.8599854 72.8099976 136.8599854 C 95.3800049 136.8599854 113.75 155.2299805 113.75 177.7999878 L 113.9699707 177.7999878 C 116.3900146 175.92999269999999 118.97998050000001 174.2799683 121.75 172.8800049 C 120.4099731 159.2399902 113.4199829 147.2299805 103.1900024 139.1699829 z M 82.0499878 125.0899658 C 75.2800293 130.2000122 65.63000489999999 128.8599853 60.539978 122.0899658 C 55.4299926 115.329956 56.7999878 105.66998290000001 63.5700073 100.55999750000001 C 70.2999878 95.46997060000001 79.9600219 96.82000730000001 85.0700073 103.58996580000002 C 90.1599731 110.3499756 88.8099976 120 82.0499878 125.0899658 z" stroke-linecap="round" />
</g>
		<g transform="matrix(1.3492700051334536 0 0 1.3492700051334536 -0.013505855433891156 49.95811502275251)"  >
<path style="stroke: none; stroke-width: 1; stroke-dasharray: none; stroke-linecap: butt; stroke-dashoffset: 0; stroke-linejoin: miter; stroke-miterlimit: 4; fill: rgb(0,0,0); fill-rule: nonzero; opacity: 1;"  paint-order="stroke"  transform=" translate(-143.9899903, -181.02603440999349)" d="M 193.1699829 215.1699829 C 192.6699829 199.98999020000002 185.2800293 186.5199585 174 177.7999878 C 171.5800171 175.92999269999999 168.9699707 174.2799683 166.2199707 172.8800049 C 163.9400024 171.70001219999997 161.53997800000002 170.709961 159.07000730000001 169.9400025 C 168.69000240000003 161.959961 170.4500122 147.669983 162.8400268 137.5700074 C 155 127.1799927 140.1799927 125.0899658 129.7800293 132.9299927 C 119.3900147 140.7600098 117.2999878 155.60998540000003 125.1400147 166.0100098 C 126.26000979999999 167.48999030000002 127.5300293 168.8099976 128.9000245 169.94000250000002 C 126.42999280000001 170.70996100000002 124.0399781 171.70001230000003 121.7500001 172.88000490000002 C 118.97998059999999 174.2799683 116.3900147 175.9299927 113.9699708 177.79998780000003 C 102.7000123 186.51995850000003 95.29998789999999 199.98999020000002 94.8099977 215.16998290000004 L 94.8599855 216.76995850000003 C 95.65997329999999 226.33996580000002 103.69000259999999 233.86999510000004 113.47998059999999 233.86999510000004 C 123.7899782 233.86999510000004 132.17999279999998 225.48999020000005 132.17999279999998 215.16998290000004 L 123.92999279999998 215.16998290000004 C 123.92999279999998 220.91998290000004 119.25000009999998 225.61999510000004 113.47998059999998 225.61999510000004 C 107.91998299999997 225.61999510000004 103.33001719999997 221.21997070000003 103.04998789999998 215.71997070000003 C 103.5999756 193.6199951 121.75 175.7999878 144 175.7999878 C 166.2199707 175.7999878 184.36999509999998 193.61999509999998 184.9199829 215.7199707 C 184.6400146 221.2199707 180.0499878 225.6199951 174.5 225.6199951 C 168.75 225.6199951 164.0499878 220.9199829 164.0499878 215.1699829 L 155.7999878 215.1699829 C 155.7999878 225.48999020000002 164.17999269999999 233.8699951 174.5 233.8699951 C 184.289978 233.8699951 192.3099976 226.33996580000002 193.1099854 216.7699585 L 193.1699829 215.1699829 z M 153.2399902 164.0499878 C 146.4699707 169.1400147 136.8200073 167.789978 131.7399902 161.0299683 C 126.6199951 154.2600098 127.96997069999999 144.6099854 134.7299804 139.5299683 C 141.49999989999998 134.44000250000002 151.15002429999998 135.7899781 156.26000969999998 142.5499878 C 161.3499756 149.3200073 160 158.9699707 153.2399902 164.0499878 z" stroke-linecap="round" />
</g>
</g>
</g>
</svg>